<svg xmlns="http://www.w3.org/2000/svg" viewBox="0 0 500 500">
  <ellipse style="stroke-width: 6px; fill: rgb(30, 30, 30); stroke: rgb(30, 30, 30);" cx="252.723" cy="259.969" rx="154.701" ry="220.952"/>
  <path style="fill: rgb(254, 158, 29); stroke-width: 6px; stroke: rgb(30, 30, 30);" d="M 93.243 82.886 L 68.317 380.074 C 68.317 380.074 29.354 368.191 24.007 274.104 C 24.007 274.104 23.822 204.937 31.108 152.402 C 38.394 99.867 92.092 82.886 93.243 82.886 Z"/>
  <ellipse style="fill: rgb(254, 158, 29);" cx="187.72" cy="240.068" rx="67.353" ry="67.353"/>
  <ellipse style="fill: rgb(254, 158, 29);" cx="317.38" cy="240.068" rx="67.353" ry="67.353"/>
  <ellipse style="stroke: rgb(0, 0, 0); fill: rgb(30, 30, 30);" cx="318.328" cy="242.943" rx="46.825" ry="46.825"/>
  <path style="fill: rgb(216, 36, 0); stroke-linecap: square;" d="M 196.381 54.435 C 196.381 54.435 201.387 51.619 210.207 48.554 C 219.028 45.489 231.663 42.174 246.923 41.177 C 262.183 40.18 280.972 43.861 298.099 51.245 C 315.227 58.629 330.694 69.716 339.311 83.531 C 347.928 97.346 347.599 107.793 343.593 115.833 C 339.587 123.873 331.905 129.507 325.817 133.696 C 319.729 137.885 314.221 141.928 308.131 145.657 C 302.042 149.386 295.369 152.802 286.951 155.735 C 278.533 158.669 273.093 161.594 267.751 163.832 C 262.408 166.07 257.162 167.621 249.132 167.803 C 241.102 167.986 234.968 167.478 229.57 166.726 C 224.172 165.974 219.509 164.976 214.423 164.178 C 209.336 163.38 204.311 162.354 198.974 161.864 C 193.636 161.375 187.987 161.421 181.654 162.768 C 175.32 164.115 170.943 165.128 166.048 167.081 C 161.153 169.034 155.74 171.927 147.337 177.034 C 138.933 182.141 133.629 187.685 129.971 192.569 C 126.313 197.453 124.301 201.678 122.48 204.147 C 120.66 206.616 118.941 209.47 117.327 214.077 C 115.714 218.683 114.207 225.042 112.81 234.517 C 111.414 243.993 110.068 245.913 109.058 242.895 C 108.048 239.878 107.375 231.924 107.325 221.651 C 107.275 211.378 108.463 199.093 110.561 187.108 C 112.659 175.122 115.668 163.436 119.258 154.359 C 122.849 145.283 126.541 137.184 130.562 129.346 C 134.584 121.509 138.936 113.934 143.848 105.905 C 148.76 97.876 155.769 89.885 164.611 81.463 C 173.454 73.042 184.132 64.189 196.381 54.435 Z"/>
  <ellipse style="fill: rgb(254, 158, 29);" cx="254.598" cy="387.515" rx="99.611" ry="81.358"/>
  <ellipse style="transform-box: fill-box; transform-origin: 50% 50%; fill: rgb(30, 30, 30);" cx="254.285" cy="395.649" rx="57.062" ry="18.473"/>
  <path style="fill: rgb(254, 158, 29); stroke-width: 6px; stroke: rgb(30, 30, 30); transform-box: fill-box; transform-origin: 50% 50%;" d="M 481.836 380.074 L 458.523 82.886 C 458.523 82.886 422.081 94.769 417.08 188.856 C 417.08 188.856 416.907 258.023 423.722 310.558 C 430.536 363.093 480.759 380.074 481.836 380.074 Z" transform="matrix(-1, 0, 0, -1, 0.000093, 0.000016)"/>
  <rect x="223.242" y="314.934" width="64.916" height="26.522" style="fill: rgb(30, 30, 30);"/>
  <rect x="192.721" y="163.843" width="56.041" height="21.807" style="fill: rgb(30, 30, 30);" transform="matrix(1, -0.00001, 0, 1, 34.958336, 136.948257)"/>
  <ellipse style="stroke: rgb(0, 0, 0); fill: rgb(30, 30, 30);" cx="185.398" cy="242.943" rx="46.825" ry="46.825"/>
</svg>